<?xml version="1.0" encoding="UTF-8" standalone="no"?> <!-- Created with Vectornator for iOS (http://vectornator.io/) --><!DOCTYPE svg PUBLIC "-//W3C//DTD SVG 1.1//EN" "http://www.w3.org/Graphics/SVG/1.1/DTD/svg11.dtd">
<svg style="fill-rule:evenodd;clip-rule:evenodd;stroke-linecap:round;stroke-linejoin:round;" xmlns:vectornator="http://vectornator.io" xmlns:xlink="http://www.w3.org/1999/xlink" xmlns="http://www.w3.org/2000/svg" xml:space="preserve" version="1.1" viewBox="0 0 460 250">
<metadata>
<vectornator:setting key="DisplayWhiteBackground" value="0"/>
<vectornator:setting key="RulersVisible" value="1"/>
<vectornator:setting key="SnapToEdges" value="0"/>
<vectornator:setting key="Units" value="Pixels"/>
<vectornator:setting key="DynamicGuides" value="1"/>
<vectornator:setting key="SnapToPoints" value="0"/>
<vectornator:setting key="CMYKEnabledKey" value="0"/>
<vectornator:setting key="SnapToGrid" value="0"/>
<vectornator:setting key="SnapToGuides" value="1"/>
<vectornator:setting key="ShowGrid" value="0"/>
<vectornator:setting key="GridSpacing" value="2"/>
</metadata>
<defs/>
<g id="图层 1" vectornator:layerName="图层 1">
<path d="M2.79328e-05+667.987L-4.24418e-08+2.64435e-05L640-2.75509e-06L640+667.987L2.79328e-05+667.987Z" opacity="0" fill="#f6f6f4"/>
<path d="M14.0043+36.7268C8.62268+36.7268+4.25998+41.501+4.25998+47.3904L4.25998+239.336C4.25998+245.226+8.62268+250+14.0043+250L238.124+250C243.506+250+247.869+245.226+247.869+239.336L247.869+47.3904C247.869+41.501+243.506+36.7268+238.124+36.7268L218.361+36.7268C218.361+36.7268+207.236+35.1399+202.433+40.9324C197.629+46.7249+199.147+59.8966+199.147+59.8966L199.147+179.353C199.147+179.353+199.756+187.386+196.102+191.683C192.448+195.98+184.531+196.682+184.531+196.682L167.478+196.682C167.478+196.682+158.04+197.083+153.775+192.35C149.51+187.616+150.425+177.687+150.425+177.687L150.425+55.7717C150.425+55.7717+151.084+46.9912+147.156+42.23C143.229+37.4688+134.716+36.7268+134.716+36.7268L120.272+36.7268C120.272+36.7268+110.345+36.3839+105.703+41.0065C101.061+45.629+101.704+55.217+101.704+55.217L101.704+179.353C101.704+179.353+102.312+187.386+98.6584+191.683C95.0046+195.98+87.087+196.682+87.087+196.682L70.0344+196.682C70.0344+196.682+60.5961+197.083+56.3314+192.35C52.0667+187.616+52.9818+177.687+52.9818+177.687L52.9818+46.9382C52.9818+46.9382+53.3098+41.7622+51.7123+39.2093C50.1147+36.6564+46.5915+36.7268+46.5915+36.7268L14.0043+36.7268ZM430.511+47.3904C430.511+41.501+426.149+36.7268+420.767+36.7268L294.09+36.7268C288.709+36.7268+284.346+41.501+284.346+47.3904L284.346+239.336C284.346+245.226+288.709+250+294.09+250L316.25+250C316.25+250+325.483+248.889+329.687+242.947C333.892+237.006+333.068+226.234+333.068+226.234L333.068+100.709C333.068+94.8193+337.43+90.0451+342.812+90.0451L372.045+90.0451C377.427+90.0451+381.789+94.8194+381.79+100.709L381.789+226.628C381.789+226.628+380.798+237.803+385.011+243.646C389.225+249.489+398.644+250+398.644+250L420.767+250C426.149+250+430.511+245.226+430.511+239.336L430.511+47.3904Z" opacity="1" fill="#000000"/>
<path stroke="#000000" stroke-width="15" d="M33.493+15.3994C28.1114+15.3995+23.7487+20.1737+23.7487+26.0631L23.7487+218.009C23.7487+223.898+28.1114+228.673+33.493+228.673L257.613+228.673C262.995+228.673+267.358+223.898+267.358+218.009L267.358+26.0631C267.358+20.1737+262.995+15.3994+257.613+15.3994L237.849+15.3994C237.849+15.3994+226.725+13.8126+221.922+19.6051C217.118+25.3975+218.636+38.5693+218.636+38.5693L218.636+158.026C218.636+158.026+219.244+166.059+215.591+170.356C211.937+174.653+204.019+175.354+204.019+175.354L186.967+175.354C186.967+175.354+177.528+175.755+173.264+171.022C168.999+166.289+169.914+156.36+169.914+156.36L169.914+34.4443C169.914+34.4443+170.572+25.6639+166.645+20.9027C162.718+16.1414+154.204+15.3994+154.204+15.3994L139.761+15.3994C139.761+15.3994+129.834+15.0566+125.192+19.6791C120.55+24.3017+121.192+33.8897+121.192+33.8897L121.192+158.026C121.192+158.026+121.801+166.059+118.147+170.356C114.493+174.653+106.576+175.354+106.576+175.354L89.5231+175.354C89.5231+175.354+80.0848+175.755+75.8201+171.022C71.5554+166.289+72.4705+156.36+72.4705+156.36L72.4705+25.6109C72.4705+25.6109+72.7985+20.4348+71.201+17.882C69.6034+15.3291+66.0802+15.3994+66.0802+15.3994L33.493+15.3994ZM450+26.0631C450+20.1737+445.637+15.3994+440.256+15.3994L313.579+15.3994C308.197+15.3994+303.835+20.1737+303.835+26.0631L303.835+218.009C303.835+223.898+308.197+228.673+313.579+228.673L335.739+228.673C335.739+228.673+344.971+227.561+349.176+221.62C353.38+215.678+352.556+204.907+352.556+204.907L352.556+79.3814C352.556+73.492+356.919+68.7178+362.301+68.7177L391.534+68.7177C396.916+68.7177+401.278+73.492+401.278+79.3814L401.278+205.301C401.278+205.301+400.286+216.476+404.5+222.318C408.714+228.161+418.133+228.673+418.133+228.673L440.256+228.673C445.637+228.673+450+223.898+450+218.009L450+26.0631Z" fill="#f6f6f4" stroke-linecap="round" opacity="1" stroke-linejoin="round"/>
</g>
</svg>
